HIERARCHY
ROOT Hips
{
	OFFSET -14.64140 90.27770 -84.91600
	CHANNELS 6 Xposition Yposition Zposition Zrotation Xrotation Yrotation
	JOINT Spine
	{
		OFFSET 0.00000 13.20850 -1.60436
		CHANNELS 3 Zrotation Xrotation Yrotation
		JOINT Spine1
		{
			OFFSET 0.00000 8.61716 0.00000
			CHANNELS 3 Zrotation Xrotation Yrotation
			JOINT Spine2
			{
				OFFSET 0.00000 8.61717 0.00000
				CHANNELS 3 Zrotation Xrotation Yrotation
				JOINT Spine3
				{
					OFFSET 0.00000 8.61717 0.00000
					CHANNELS 3 Zrotation Xrotation Yrotation
					JOINT Neck
					{
						OFFSET 0.00000 11.07920 1.10792
						CHANNELS 3 Zrotation Xrotation Yrotation
						JOINT Neck1
						{
							OFFSET 0.00000 7.08032 0.00000
							CHANNELS 3 Zrotation Xrotation Yrotation
							JOINT Head
							{
								OFFSET 0.00000 7.08031 0.00000
								CHANNELS 3 Zrotation Xrotation Yrotation
								End site
								{
									OFFSET 0.00000 0.00000 0.00000
								}
							}
						}
					}
					JOINT RightShoulder
					{
						OFFSET -0.01000 7.91373 5.19711
						CHANNELS 3 Zrotation Xrotation Yrotation
						JOINT RightArm
						{
							OFFSET -18.41580 0.00000 0.00000
							CHANNELS 3 Zrotation Xrotation Yrotation
							JOINT RightForeArm
							{
								OFFSET -29.11090 0.00000 0.00000
								CHANNELS 3 Zrotation Xrotation Yrotation
								JOINT RightHand
								{
									OFFSET -24.65040 0.00000 0.00000
									CHANNELS 3 Zrotation Xrotation Yrotation
									JOINT RightHandThumb1
									{
										OFFSET -5.35114 -0.85590 3.97906
										CHANNELS 3 Zrotation Xrotation Yrotation
										JOINT RightHandThumb2
										{
											OFFSET -4.52789 0.00000 0.00000
											CHANNELS 3 Zrotation Xrotation Yrotation
											JOINT RightHandThumb3
											{
												OFFSET -2.46976 0.00000 0.00000
												CHANNELS 3 Zrotation Xrotation Yrotation
												End site
												{
													OFFSET 0.00000 0.00000 0.00000
												}
											}
										}
									}
									JOINT RightHandIndex1
									{
										OFFSET -14.26970 0.00000 2.88139
										CHANNELS 3 Zrotation Xrotation Yrotation
										JOINT RightHandIndex2
										{
											OFFSET -5.48836 0.00000 0.00000
											CHANNELS 3 Zrotation Xrotation Yrotation
											JOINT RightHandIndex3
											{
												OFFSET -3.01859 0.00000 0.00000
												CHANNELS 3 Zrotation Xrotation Yrotation
												End site
												{
													OFFSET 0.00000 0.00000 0.00000
												}
											}
										}
									}
									JOINT RightHandMiddle1
									{
										OFFSET -14.26970 0.00000 -0.09147
										CHANNELS 3 Zrotation Xrotation Yrotation
										JOINT RightHandMiddle2
										{
											OFFSET -6.17441 0.00000 0.00000
											CHANNELS 3 Zrotation Xrotation Yrotation
											JOINT RightHandMiddle3
											{
												OFFSET -3.56743 0.00000 0.00000
												CHANNELS 3 Zrotation Xrotation Yrotation
												End site
												{
													OFFSET 0.00000 0.00000 0.00000
												}
											}
										}
									}
									JOINT RightHandRing1
									{
										OFFSET -12.69180 0.00000 -3.06433
										CHANNELS 3 Zrotation Xrotation Yrotation
										JOINT RightHandRing2
										{
											OFFSET -5.62556 0.00000 0.00000
											CHANNELS 3 Zrotation Xrotation Yrotation
											JOINT RightHandRing3
											{
												OFFSET -3.56744 0.00000 0.00000
												CHANNELS 3 Zrotation Xrotation Yrotation
												End site
												{
													OFFSET 0.00000 0.00000 0.00000
												}
											}
										}
									}
									JOINT RightHandPinky1
									{
										OFFSET -11.11390 0.00000 -6.03719
										CHANNELS 3 Zrotation Xrotation Yrotation
										JOINT RightHandPinky2
										{
											OFFSET -4.52789 0.00000 0.00000
											CHANNELS 3 Zrotation Xrotation Yrotation
											JOINT RightHandPinky3
											{
												OFFSET -2.46976 0.00000 0.00000
												CHANNELS 3 Zrotation Xrotation Yrotation
												End site
												{
													OFFSET 0.00000 0.00000 0.00000
												}
											}
										}
									}
								}
							}
						}
					}
					JOINT LeftShoulder
					{
						OFFSET 0.01000 7.91373 5.19711
						CHANNELS 3 Zrotation Xrotation Yrotation
						JOINT LeftArm
						{
							OFFSET 18.41580 0.00000 0.00000
							CHANNELS 3 Zrotation Xrotation Yrotation
							JOINT LeftForeArm
							{
								OFFSET 29.11090 0.00000 0.00000
								CHANNELS 3 Zrotation Xrotation Yrotation
								JOINT LeftHand
								{
									OFFSET 24.65040 0.00000 0.00000
									CHANNELS 3 Zrotation Xrotation Yrotation
									JOINT LeftHandThumb1
									{
										OFFSET 5.35114 -0.85590 3.97906
										CHANNELS 3 Zrotation Xrotation Yrotation
										JOINT LeftHandThumb2
										{
											OFFSET 4.52789 0.00000 0.00000
											CHANNELS 3 Zrotation Xrotation Yrotation
											JOINT LeftHandThumb3
											{
												OFFSET 2.46977 0.00000 0.00000
												CHANNELS 3 Zrotation Xrotation Yrotation
												End site
												{
													OFFSET 0.00000 0.00000 0.00000
												}
											}
										}
									}
									JOINT LeftHandIndex1
									{
										OFFSET 14.26970 0.00000 2.88139
										CHANNELS 3 Zrotation Xrotation Yrotation
										JOINT LeftHandIndex2
										{
											OFFSET 5.48836 0.00000 0.00000
											CHANNELS 3 Zrotation Xrotation Yrotation
											JOINT LeftHandIndex3
											{
												OFFSET 3.01859 0.00000 0.00000
												CHANNELS 3 Zrotation Xrotation Yrotation
												End site
												{
													OFFSET 0.00000 0.00000 0.00000
												}
											}
										}
									}
									JOINT LeftHandMiddle1
									{
										OFFSET 14.26970 0.00000 -0.09147
										CHANNELS 3 Zrotation Xrotation Yrotation
										JOINT LeftHandMiddle2
										{
											OFFSET 6.17440 0.00000 0.00000
											CHANNELS 3 Zrotation Xrotation Yrotation
											JOINT LeftHandMiddle3
											{
												OFFSET 3.56744 0.00000 0.00000
												CHANNELS 3 Zrotation Xrotation Yrotation
												End site
												{
													OFFSET 0.00000 0.00000 0.00000
												}
											}
										}
									}
									JOINT LeftHandRing1
									{
										OFFSET 12.69180 0.00000 -3.06433
										CHANNELS 3 Zrotation Xrotation Yrotation
										JOINT LeftHandRing2
										{
											OFFSET 5.62556 0.00000 0.00000
											CHANNELS 3 Zrotation Xrotation Yrotation
											JOINT LeftHandRing3
											{
												OFFSET 3.56744 0.00000 0.00000
												CHANNELS 3 Zrotation Xrotation Yrotation
												End site
												{
													OFFSET 0.00000 0.00000 0.00000
												}
											}
										}
									}
									JOINT LeftHandPinky1
									{
										OFFSET 11.11390 0.00000 -6.03719
										CHANNELS 3 Zrotation Xrotation Yrotation
										JOINT LeftHandPinky2
										{
											OFFSET 4.52789 0.00000 0.00000
											CHANNELS 3 Zrotation Xrotation Yrotation
											JOINT LeftHandPinky3
											{
												OFFSET 2.46976 0.00000 0.00000
												CHANNELS 3 Zrotation Xrotation Yrotation
												End site
												{
													OFFSET 0.00000 0.00000 0.00000
												}
											}
										}
									}
								}
							}
						}
					}
					JOINT pCube4
					{
						OFFSET 0.00000 10.91090 1.10792
						CHANNELS 3 Zrotation Xrotation Yrotation
						End site
						{
							OFFSET 0.00000 0.00000 0.00000
						}
					}
				}
			}
		}
	}
	JOINT RightUpLeg
	{
		OFFSET -9.98441 0.00000 0.00000
		CHANNELS 3 Zrotation Xrotation Yrotation
		JOINT RightLeg
		{
			OFFSET 0.00000 -42.11790 0.00000
			CHANNELS 3 Zrotation Xrotation Yrotation
			JOINT RightFoot
			{
				OFFSET 0.00000 -45.00020 -0.00001
				CHANNELS 3 Zrotation Xrotation Yrotation
				JOINT RightForeFoot
				{
					OFFSET 0.00000 -3.74820 0.00000
					CHANNELS 3 Zrotation Xrotation Yrotation
					JOINT RightToeBase
					{
						OFFSET 0.00000 0.06325 14.43120
						CHANNELS 3 Zrotation Xrotation Yrotation
						End site
						{
							OFFSET 0.00000 0.00000 0.00000
						}
					}
				}
			}
		}
	}
	JOINT LeftUpLeg
	{
		OFFSET 9.98441 0.00000 0.00000
		CHANNELS 3 Zrotation Xrotation Yrotation
		JOINT LeftLeg
		{
			OFFSET 0.00000 -42.11800 0.00000
			CHANNELS 3 Zrotation Xrotation Yrotation
			JOINT LeftFoot
			{
				OFFSET 0.00000 -45.00070 0.00000
				CHANNELS 3 Zrotation Xrotation Yrotation
				JOINT LeftForeFoot
				{
					OFFSET 0.00000 -3.74824 0.00000
					CHANNELS 3 Zrotation Xrotation Yrotation
					JOINT LeftToeBase
					{
						OFFSET 0.00000 0.06325 14.43110
						CHANNELS 3 Zrotation Xrotation Yrotation
						End site
						{
							OFFSET 0.00000 0.00000 0.00000
						}
					}
				}
			}
		}
	}
}
MOTION
Frames: 4
Frame Time: 0.050000
0.021593329603018976 0.03591224070531181 -0.04780491073380673 0.019009751619217495 0.023715309867554435 0.035711433002025963 3.506235686861256 3.4576953991233528 -1.881710744673423 -0.8743525457814261 3.5117340034271782 0.4259033496532168 -0.7040016658816227 -0.8320618772672385 -0.2623680381321661 -0.129823799219785 -0.03751519816037589 -0.554802131610394 -0.03987977458304438 11.850197730397449 -0.8994330538101103 0.298639800337088 -0.4257477153354964 -1.6103140229980788 0.6548317817336462 -16.419795432303623 -0.1801740896900763 -7.686748074435981 2.997872892521443 -16.07346256003625 77.60357898037435 5.525632906754569 9.774071558111162 6.035356000333762 1.5173651649710054 96.87743383267565 3.4210169912911277 0.02204663977021578 -0.06459926948426978 4.491779791116786 -0.07970089394900232 -1.6266844798423519 0.0070583236730638035 0.015847831519835955 -56.24781658500546 0.031955152174351194 -0.03526155079554723 -56.23559548433791 -38.756250587061174 -0.0280070168878028 0.013412126967989331 0.047870921908354395 -0.01730557731363853 -0.03032482685449308 0.003051092661098844 0.01554813458176849 0.008507527828818806 -36.67218176480063 0.03206005495012343 0.020964790001294264 -0.041364648346286406 0.005147488377383748 0.043432632302469985 0.017342312360424862 0.01203519031234099 -0.008049754108620483 -19.73192597969778 -0.04511246586714576 0.01817713994287602 -0.01344742755335831 0.03614749877508327 0.03472367578416797 -0.014688829417717725 0.04363231372605204 0.006223646320328533 24.06860106454474 0.045109055897857665 0.007636943706012674 28.869481422389534 -0.016454359436420634 0.017997621321640015 28.82759333673462 0.007802304140538586 -0.009284114554815573 8.728933558869006 2.206003053830527 12.979928552932499 -72.38084747360752 27.311861838599306 -18.177463613336926 -17.861157245156804 1.510807787248094 -90.86733022087353 -10.383759492545378 -7.090982984196315 3.4058840059714384 -0.5139100318519666 0.07319950396478336 -8.148747759212798 -0.005741490984365086 -0.011082657901525864 44.55752727554736 0.02959952435541272 0.0466955548448091 44.55584690649449 12.446429112306646 -0.021853912012448993 -0.010970583375694832 -0.047767861533764104 0.03387688171587436 0.006351844401122858 0.040386003123941173 -0.04847455694224687 0.010525679078759176 11.141137035937886 -3.0100235661690625e-05 -0.014703541075043616 -0.017771476767329913 -0.005569278770650981 0.04557071118254421 0.007554035929471978 -0.010264767043494747 0.001618402073205096 4.772698546360189 0.00843986959172047 -0.04330974803681932 -0.002940043000014285 0.041147373169796664 -0.032363295929545316 -0.017396849318846105 -0.006518838500407973 0.013627957290712582 -5.6504151255419375 -0.04727970921954801 -0.00035331626890837794 -6.700179374296628 0.03498333863495041 0.04116730734135026 -6.697816259439987 -0.021251145419432352 0.04396278527093593 0.04416784557806197 -0.04420719837391156 0.0438708355844218 8.04723046650048 3.5344803469929817 -19.213132626043357 -0.024005145824520985 10.42727123870696 0.005675512090379805 -5.575093573040867 -15.697960684374916 3.1756750421212323 0.0349509123103465 -0.0032573474145645427 0.029638412696691107 -0.030835663574917526 4.6545852554474125 -0.026041616820026293 12.497049272208256 -8.283541050116392 6.854433495966761 -0.020638236312819157 46.362995454483496 -0.027193562548147792 -4.279580105872788 -14.7212880030835 -3.816544770799741 -0.03336186181810904 0.04185979691923036 -2.133569815457579e-05 -0.023211058678972277 -10.739252085345484 -0.044948230580971256 
0.0006204377138707184 0.025610594234045943 0.032373344538058346 -0.031053626294275855 -0.045382639047229154 -0.026597939124846478 3.2243326246641826 3.5770318486972115 -1.8901725652619283 -0.8769810082498519 3.491879395343002 0.3701451486174304 -0.6972785821227634 -0.8157932002190533 -0.3208590280392767 -0.15293697072030035 0.025698223146774075 -0.5693671322281676 -0.10137737156487019 11.654569977632518 -0.701960780464383 0.30100440457320843 -0.4165519490831289 -1.383312632305949 0.5750366509307528 -16.430376419287914 -0.12331944940710737 -7.248216378032863 2.9227672160220233 -15.985530127843893 77.32224516663675 5.596585974670264 8.431473839801132 7.99239215327133 2.447296369673958 96.00940985681414 3.987434162444613 -0.05521712931541241 -0.46590473012279676 4.486640350245971 -0.15455518235429133 -1.6015109874473845 -0.04778429245339513 -0.01620417476832278 -56.24664788145782 -0.0052699037212332505 0.01129290242015199 -56.21495818180965 -38.787583745339795 0.032400134783689395 -0.02735258274405719 0.02417562666921114 0.03515226997833817 0.03539735378169367 -0.00513161145289032 0.0030005215774359887 -0.036813677915784965 -36.738706700681064 0.017907332417213494 0.044094041927641874 -0.003318970136986855 -0.02419139215084787 0.0010110421161374325 0.008269671859549693 0.026818027643389825 0.02351255128130027 -19.75134014233439 -0.006936142211190363 0.03578424014624103 0.01367146236499278 -0.0011036352595022291 -0.04491093357213381 0.02506453874825584 -0.04895192669080628 0.04808262810642708 24.06742670580722 0.0052721528840081995 0.032349929567596816 28.846359778382432 -0.03147703766501751 -0.014999555696420072 28.87014114460103 -0.008349430099467679 0.04512509185825138 8.435300676648628 2.177952251221655 12.960458356145223 -72.2119469238642 27.088606502000054 -17.28610861569303 -22.508773930895305 3.4366330889864245 -90.72994906414239 -11.887509184362345 -8.000154112931167 4.361677051976018 -0.44895146157422017 0.047649293172730686 -8.092737279273129 0.0023915040076295108 0.0014405681028977898 44.52178117986528 -0.043089435461546 0.020823640929970525 44.52786363493518 12.469430845358136 0.00027072544791806194 -0.028956423931920407 0.023065006036308948 -0.008806402511839229 -2.6419260548327097e-05 0.012314834266090311 -0.04704691617985681 0.026017575493610043 11.10135241052395 -0.043623085084675835 0.0007572190283599231 0.020610206093586086 0.022406105143371723 0.014442842219346684 -0.001622089494586734 0.02484088279233685 -0.023804734821536364 4.810240460819793 0.047018469860407336 -0.026061425938582187 0.02663415322175977 -0.009077489357806145 -0.006372166814736261 -0.009053293458715885 0.04916898717870659 -0.003915980247675617 -5.588465866774197 -0.01754688269205631 0.0034276417310284443 -6.67673119316463 -0.04189769210830217 0.008893214330999419 -6.69779938664355 -0.04512227141974343 -0.004026276860134645 0.012563899299474511 -0.03936488716516729 -0.023450994699335686 8.071402909773512 3.515682820205038 -19.231938882370287 -0.020704251715796183 10.441516035401536 0.06214853679449485 -5.624622987235979 -15.688555731017413 3.1865322290534253 0.0018767066936958218 0.02198856976234916 -0.034320706393081254 0.010219669076789218 4.665645731408093 0.006568727194419466 12.452333323465433 -8.237319755630462 6.857123797267364 -0.017018732148295277 46.38900152729386 -0.014033688182688197 -4.336078901537849 -14.725006538959532 -3.8079492459017596 0.04933380447655279 -0.038039743648702155 -0.025439692630376647 -0.014153746493407181 -10.738668504879353 -0.014838887010690105 
0.024069682759787887 0.016376171097651392 0.03391385191234861 0.022265857651769812 -0.04138398256507255 0.02743419199944684 3.0838459820419226 3.7262034648783273 -1.8806296686620603 -0.833971144805477 3.515844546656816 0.4167626843994097 -0.6602284147110973 -0.7793784464998118 -0.3558830280705673 -0.17724994171902822 -0.05656954875771354 -0.5683354404407074 -0.1800079695381737 11.471686741847213 -0.6467080996187194 0.2603380781171457 -0.48020749738167634 -1.3631800144918884 0.5658639688248375 -16.42289839399484 -0.16720058500341323 -6.836179135791751 2.833610505347474 -15.926209322191035 77.25176685473436 5.515594404663627 6.439093119880294 10.279054706272811 3.659293674981301 93.23353809402464 4.929617099862398 -0.0727438365706344 -1.026059817863244 4.509051182999331 -0.09233553022324108 -1.6173879969717144 0.004753663103909266 -0.005513970926330586 -56.24983114273384 -0.002160921237532338 -0.024300383360702678 -56.20921680498169 -38.72928066445516 -0.01442092601720775 -0.007603599411038005 -0.006573688926407206 0.048038297136244114 0.017233142276924185 -0.025768587548094912 -0.03176714219772404 -0.008852933089936857 -36.71684392597144 0.021284971320539706 0.025350575187335123 -0.00021021493412781575 -0.009499728041103644 0.012310376210926514 0.009768819247767553 -0.004859959966276429 0.01616140987011739 -19.80474355623989 0.015302988526662762 -0.02025129342269919 -0.021547396851852134 0.02206898671587306 -0.042068356791899374 0.03394587915279825 9.481557828508611e-05 -0.03997755422636477 24.090375505171576 0.03531861709745811 -0.02088612859809741 28.90554080015172 0.025647956904451086 -0.0013871119686439785 28.837546339730128 -0.021404362077815032 -0.040508049289334616 8.1604399089758 2.1268900789049083 12.992296683163456 -72.25528684290569 26.564517511340984 -16.042481317039787 -27.07196538950691 5.259591998894081 -89.47676122195934 -12.971916975999157 -8.39218227791918 4.856515722593049 -0.4736835468115272 0.09865600117582207 -8.127472168609346 0.04050849904652826 -0.018464366755133757 44.55678935812475 -0.03860984696924752 0.01566674563423761 44.52016381755725 12.433923628712641 -0.034769073762907665 -0.03983151814152012 -0.00847955112652148 -0.015779559393244682 -0.019553691616002795 0.024884235449075528 -0.04980691347880046 -0.021814885252518602 11.105291815033693 0.03744933469119493 0.024154138809313323 -0.045382768019281525 -0.006234143319916093 0.04862182531423622 -0.021616553992682433 0.021520061195671313 0.017683111478488132 4.756575582826168 -0.005191964031372077 -0.0006552623474889531 0.01007001026956798 -0.002942008064057351 -0.03364472734359927 0.005243884211994774 -0.03314338687771302 -0.01615630449920204 -5.578489931279556 0.0055184475889339816 -0.012294200290981388 -6.6847443027330105 -0.03585871960713804 0.003424923326033146 -6.711170979090082 0.0162399954831357 -0.03983547996028276 -0.046611933688461525 -0.026879975481050755 0.01752382311659146 8.047125194922105 3.4719199146634407 -19.21346643721182 0.014697128799665874 10.3972314180197 -0.02349328322024762 -5.64893868910956 -15.647973330879386 3.1634304595212934 -0.02488656260012525 -0.04044031771511803 0.04796980329814442 -0.01876690963561977 4.715047846114231 -0.035061410321167774 12.437557086537751 -8.229984306208564 6.890538838020536 -0.018282756171162918 46.41665495411583 0.024914075741464623 -4.333331116818369 -14.764547031767902 -3.813251780701185 -0.03260593902690296 0.009030435093653765 0.048107212291765754 -0.030679590914632068 -10.753965528441213 -0.004406616832951716 
0.026291923632549764 0.04469731579097271 0.012072609288030141 0.029808270377490773 0.016527778040104895 -0.03958648067289229 2.929719706387172 3.8173902090616694 -1.8244583421648817 -0.8436299578214576 3.492630856804473 0.383933641686767 -0.6836029723839699 -0.7504858416835366 -0.3313205586378489 -0.223110733171698 -0.04333973037923023 -0.5618133337146187 -0.14677409064576935 11.339975409663396 -0.6452450365211323 0.1963397069344951 -0.5722488149362408 -1.3371086797931784 0.5322491208414296 -16.504046487558274 -0.17275801617353237 -6.588258412284015 2.7838716068510676 -15.955699450467103 77.35823193772103 5.667721549996537 4.9824896183480885 12.191744619274608 4.790086801307723 89.77614163618483 6.259551814288054 -0.12267878832649003 -1.5242894817799435 4.508212358195683 -0.1010755045696664 -1.6370496690367202 0.038614232948237695 0.043704898578756785 -56.24669085909952 -0.023478729895318524 0.015374707251333065 -56.19483843003961 -38.768991689468606 0.04413630777908083 0.0004443441354399491 0.03534903133317314 0.0047471439008578845 0.03827934021082809 0.03756391270326871 0.03985332916406019 0.01114247290919557 -36.72070595211506 0.03709547594370293 -0.033287196745978534 0.0006020360666794689 -0.02124324288515755 0.038032942290080585 -0.020094496644391793 -0.03475828956789279 0.03689592883053465 -19.72740223172414 0.004641732988380419 -0.02846422031888197 0.013532498992010998 0.02672831008535333 0.005346698476380823 -0.04449825041770089 -0.04120561411845337 0.004969473672251399 24.034042208459606 -0.005070592462245011 -0.018245952273874176 28.888885974481457 -0.00214823833329149 -0.04284353199594497 28.842183651033334 -0.014478968255751581 -0.0024286618570232813 7.905729016637862 2.084074583230381 12.972149156794686 -72.34851170578669 26.079684275543254 -14.872138409055044 -30.40552518228667 6.392634876221182 -87.65061083200078 -13.983813535127862 -8.294776823081513 5.074956012627663 -0.4527338235169073 0.09028799689391277 -8.150482803791498 -0.019769532071706914 -0.04271682383475306 44.56841087439642 0.035901381349694415 0.030501279416966082 44.57283246951051 12.507263645452076 -0.02834961641866721 -0.03978950248014131 -0.04183699669504681 -0.032694704419601026 0.03453615549030572 -0.029109952724554224 0.0003985994123738954 -0.011247997471672985 11.142393259135488 0.037543639836797496 -0.008110497555704168 -0.0027409942558054927 -0.007244327540679959 -0.023104125937877036 0.019794277926495026 0.02847450728647838 0.0047986499816321596 4.7958168917960835 0.02970877705178645 -0.010251451974995832 -0.036745828803050246 0.020415044893286157 -0.008620099837053963 0.028892719575428556 -0.022477229100973026 0.024820678854673844 -5.587322473377759 -0.025582484286834854 -0.03952445878263571 -6.704932896650071 -0.02329925179524753 0.03200300008643866 -6.768423587165469 0.04261982164590442 0.017946348185761477 0.009636926582481756 0.03843519770150242 0.046205067964937854 8.020404528036721 3.5403352067890825 -19.17966354167987 -0.016689195427002774 10.42109867960718 0.002086909627805743 -5.640468930910259 -15.63356131126687 3.199640088200923 -0.0065398490810657725 0.03424888221368508 -0.008812159046768553 0.034052921753505515 4.7210195220741635 0.02954797916813063 12.476236803460447 -8.248369266280434 6.84973630789819 -0.040941787510015794 46.36392630941571 -0.030045082732873506 -4.3080468694399086 -14.710026259292988 -3.8351170833924844 0.0338725886957411 -0.032955170451505214 0.04351634383041346 0.040825237574640585 -10.78673760824924 0.035705906825661604 
